<svg width="159" height="29" viewBox="0 0 159 29" fill="none" xmlns="http://www.w3.org/2000/svg">
<g clip-path="url(#clip0_308_56)">
<path d="M12.1508 11.6355V17.1419H0V17.1152L1.1733 15.6208C5.2443 10.4346 6.70203 7.46341 6.70203 4.24316C6.70203 1.79684 6.07983 0.533652 4.97764 0.533652C4.81764 0.533652 4.65765 0.56034 4.51543 0.604818L2.12439 7.25881H2.09772L0.186661 1.52108C1.82217 0.649297 3.66212 0.0888672 5.66206 0.0888672C9.83084 0.0888672 11.9908 1.58335 11.9908 4.30543C11.9908 7.02752 10.0531 8.94009 3.66212 12.9876H11.6975V11.6266H12.1597L12.1508 11.6355Z" fill="white"/>
<path d="M13.6529 16.6794L15.0129 10.7815H15.0396L18.2395 16.8217C18.7461 17.0263 19.0217 17.053 19.4394 17.053C21.0749 17.053 22.2749 15.9677 22.2749 14.4999C22.2749 13.3968 21.6794 12.4539 20.3372 11.7333L17.715 10.3011C15.5729 9.1269 14.3107 7.56126 14.3107 5.23059C14.2929 2.34838 16.4173 0.0888672 20.1683 0.0888672C21.9638 0.0888672 23.5993 0.337947 25.3948 1.10298L24.0349 6.19132H24.0082L20.9683 0.729358C20.5061 0.613714 20.3016 0.587027 19.8394 0.587027C18.6661 0.587027 17.6528 1.44101 17.6528 2.7042C17.6528 3.71832 18.2306 4.61678 19.9283 5.63089L22.9416 7.45451C24.8793 8.60206 25.9815 10.0076 25.9815 12.107C25.9815 15.2827 23.3149 17.5867 19.4661 17.5867C17.5106 17.5867 15.5107 17.2843 13.644 16.6616L13.6529 16.6794Z" fill="white"/>
<path d="M49.4031 16.7683V17.133H40.9322V16.7683H42.8166L40.9944 12.4361H35.6968L34.2924 16.7683H36.6657V17.133H31.5814V16.7683H32.5236L39.8478 0.0888672H41.0478L48.3453 16.7683H49.4031ZM40.8167 12.0269L37.9812 5.34623L35.8212 12.0269H40.8167Z" fill="white"/>
<path d="M48.6476 8.29071C48.6476 3.3447 51.963 0.0888672 57.0029 0.0888672C59.3761 0.0888672 61.3494 0.622609 63.0383 1.49439L61.0117 9.53611H60.985C57.4829 2.69531 55.6429 1.14746 54.0074 1.14746C52.9941 1.14746 52.2119 1.93028 52.2119 3.77169C52.2119 9.64285 57.0029 14.4643 61.9005 14.4643C62.5494 14.4643 63.3494 14.3754 63.7849 14.1619L63.8116 14.1886C62.7094 16.1723 60.1939 17.5956 57.4118 17.5956C52.1141 17.5956 48.6387 13.726 48.6387 8.29071H48.6476Z" fill="white"/>
<path d="M81.4644 16.6794V17.0442H72.9935V16.6794H74.8779L73.0557 12.3472H67.7581L66.3537 16.6794H68.7269V17.0442H63.6426V16.6794H64.5848L71.918 0H73.1179L80.4155 16.6794H81.4733H81.4644ZM72.8779 11.938L70.0425 5.25736L67.8825 11.938H72.8779Z" fill="white"/>
<path d="M100.246 8.30859C100.246 13.9218 96.344 17.0442 90.0952 17.0442H82.2644V16.6617H84.1576V1.28098L82.051 0H90.4063C96.6284 0 100.246 2.9089 100.246 8.30859ZM94.8062 8.33528C94.8062 3.14908 93.0552 0.382515 89.953 0.382515H89.3575V16.6706H89.7397C92.7885 16.6706 94.8062 13.5926 94.8062 8.33528Z" fill="white"/>
<path d="M107.89 0.382515V7.96166C109.384 7.89049 111.037 6.6362 111.908 4.83926H111.935V11.4488H111.908C111.01 9.59847 109.428 8.37086 107.89 8.29969V16.6794C110.681 16.635 113.072 15.2561 115.295 11.1374H115.321V17.0531H100.797V16.6706H102.69V1.28098L100.584 0H115.321V5.91564H115.295C113.072 1.84141 110.681 0.400307 107.89 0.37362V0.382515Z" fill="white"/>
<path d="M141.134 16.6972V17.0798H131.73V16.6972H134.103L132.227 2.16166L127.223 17.1954H125.916L119.97 2.13497L119.33 16.6972H121.774V17.0798H116.015V16.6972H117.534L119.623 1.30767V1.28098L117.49 0H124.743L128.894 10.8883L131.525 0H139.534L137.401 1.28098L139.347 16.6972H141.152H141.134Z" fill="white"/>
<path d="M152.307 10.3279V16.6706H154.2V17.0531H145.214V16.6706H147.107V11.6979L141.925 1.28098L140.058 0H149.738L147.631 1.28098L152.005 10.0433L154.84 1.28098L152.262 0H159.009L156.902 1.28098L152.316 10.3279H152.307Z" fill="white"/>
<path d="M41.3944 27.1674C41.3677 26.8115 41.3411 26.4468 41.3144 26.0732C41.2878 25.6996 41.2611 25.3438 41.2255 25.0057C41.1989 24.6677 41.1633 24.3741 41.1366 24.125C41.11 23.876 41.0744 23.6981 41.0566 23.6002C41.03 23.4935 40.9766 23.4223 40.8966 23.3778C40.8167 23.3333 40.7011 23.3066 40.5678 23.3066C40.4967 23.3066 40.4167 23.3066 40.3278 23.3333C40.2389 23.3511 40.1767 23.3689 40.1145 23.4045C39.9278 23.8226 39.7056 24.3296 39.4478 24.9257C39.1811 25.5217 38.9145 26.1444 38.6478 26.7849H38.6123C38.4701 26.4646 38.3278 26.1177 38.1767 25.753C38.0256 25.3882 37.8656 25.0235 37.7145 24.6588C37.5545 24.2941 37.3945 23.956 37.2434 23.6447C37.1901 23.529 37.1101 23.4401 37.0123 23.3867C36.9145 23.3333 36.799 23.3066 36.6568 23.3066C36.5412 23.3066 36.4346 23.3244 36.3457 23.36C36.2568 23.3956 36.1857 23.4401 36.1323 23.4757C36.1057 23.8137 36.0701 24.1962 36.0346 24.6232C35.999 25.0502 35.9723 25.4772 35.9368 25.9131C35.9101 26.349 35.8835 26.7582 35.8568 27.1407C35.839 27.5232 35.8212 27.8435 35.8035 28.1103C35.7857 28.3772 35.7768 28.5462 35.7768 28.6174C35.7768 28.7152 35.8035 28.7953 35.8568 28.8487C35.9101 28.902 36.0079 28.9376 36.1412 28.9376C36.2123 28.9376 36.2746 28.9376 36.3279 28.9198C36.3812 28.9109 36.4346 28.8931 36.4701 28.8842C36.4968 28.4484 36.5234 28.0303 36.5501 27.6477C36.5679 27.2652 36.5945 26.8827 36.6212 26.518C36.6479 26.1533 36.6657 25.7708 36.6923 25.3704C36.7101 24.979 36.7368 24.552 36.7545 24.0895H36.7901C36.9323 24.4631 37.1279 24.9257 37.3679 25.495C37.6079 26.0643 37.8923 26.687 38.2123 27.3631C38.2389 27.4342 38.2923 27.4787 38.3723 27.5054C38.4523 27.5321 38.5323 27.5499 38.63 27.5499C38.7189 27.5499 38.79 27.541 38.8612 27.5143C38.9323 27.4876 38.9856 27.4609 39.03 27.4342C39.3856 26.5981 39.6789 25.922 39.91 25.3971C40.1411 24.8723 40.3189 24.4364 40.4611 24.1073H40.4967C40.5144 24.4097 40.5322 24.8011 40.5589 25.2815C40.5855 25.7619 40.6122 26.2867 40.6478 26.8649C40.6833 27.4431 40.7189 28.0214 40.7544 28.6085C40.7633 28.733 40.8078 28.8131 40.8789 28.8576C40.95 28.902 41.03 28.9287 41.1189 28.9287C41.1989 28.9287 41.27 28.9198 41.3322 28.902C41.3944 28.8842 41.4477 28.8576 41.5011 28.822C41.5011 28.653 41.4833 28.4217 41.4566 28.137C41.4389 27.8523 41.4122 27.5232 41.3855 27.1674H41.3944Z" fill="white"/>
<path d="M44.2566 23.2888C44.1855 23.2888 44.1144 23.2888 44.0521 23.3155C43.9899 23.3333 43.9455 23.3422 43.9099 23.36V28.5996C43.9099 28.7152 43.9455 28.8042 44.0077 28.8575C44.0788 28.9109 44.1766 28.9376 44.3099 28.9376C44.381 28.9376 44.4521 28.9376 44.5143 28.9109C44.5766 28.8931 44.621 28.8842 44.6477 28.8664V23.6269C44.6477 23.5023 44.6121 23.4223 44.5499 23.3689C44.4877 23.3155 44.3899 23.2888 44.2566 23.2888Z" fill="white"/>
<path d="M50.2919 25.0681C50.5675 24.7122 50.8341 24.3564 51.0919 24.0095C51.1363 23.9383 51.1808 23.876 51.2163 23.8049C51.2519 23.7337 51.2697 23.6714 51.2697 23.6092C51.2697 23.5202 51.2341 23.4402 51.1719 23.3779C51.1097 23.3156 51.0119 23.2889 50.8875 23.2889C50.8519 23.2889 50.8163 23.2889 50.7897 23.2889C50.763 23.2889 50.7275 23.2889 50.7008 23.3067L49.0831 25.5395L47.732 23.6092C47.6609 23.5024 47.5898 23.4224 47.5187 23.369C47.4476 23.3156 47.3676 23.28 47.2698 23.28C47.1542 23.28 47.0565 23.3156 46.9853 23.3868C46.9142 23.4579 46.8609 23.5469 46.8342 23.6448L48.612 26.0644L47.0031 28.1727C46.9409 28.2527 46.8965 28.3239 46.852 28.3951C46.8165 28.4662 46.7898 28.5374 46.7898 28.6175C46.7898 28.7153 46.8253 28.7954 46.8965 28.8576C46.9676 28.9199 47.0653 28.9466 47.1898 28.9466C47.2165 28.9466 47.252 28.9466 47.2876 28.9466C47.3231 28.9466 47.3498 28.9466 47.3764 28.9288L49.0564 26.5803L50.4786 28.6352C50.5497 28.742 50.6208 28.8221 50.683 28.8754C50.7452 28.9288 50.8252 28.9466 50.923 28.9466C51.0386 28.9466 51.1275 28.911 51.1986 28.8487C51.2697 28.7776 51.3141 28.6975 51.3408 28.5908L49.5097 26.0555C49.7764 25.7263 50.0341 25.3972 50.283 25.0681H50.2919Z" fill="white"/>
<path d="M59.065 27.1674C59.0383 26.8115 59.0117 26.4468 58.985 26.0732C58.9583 25.6996 58.9317 25.3438 58.8961 25.0057C58.8695 24.6677 58.8339 24.3741 58.8072 24.125C58.7806 23.876 58.745 23.6981 58.7272 23.6002C58.7006 23.4935 58.6472 23.4223 58.5672 23.3778C58.4872 23.3333 58.3717 23.3066 58.2384 23.3066C58.1673 23.3066 58.0873 23.3066 57.9984 23.3333C57.9095 23.3511 57.8473 23.3689 57.785 23.4045C57.5984 23.8226 57.3762 24.3296 57.1184 24.9257C56.8517 25.5217 56.5851 26.1444 56.3184 26.7849H56.2829C56.1406 26.4646 55.9984 26.1177 55.8473 25.753C55.6962 25.3882 55.5362 25.0235 55.3851 24.6588C55.2251 24.2941 55.0651 23.956 54.914 23.6447C54.8607 23.529 54.7807 23.4401 54.6829 23.3867C54.5851 23.3333 54.4696 23.3066 54.3274 23.3066C54.2118 23.3066 54.1051 23.3244 54.0163 23.36C53.9274 23.3956 53.8563 23.4401 53.8029 23.4757C53.7763 23.8137 53.7407 24.1962 53.7052 24.6232C53.6696 25.0502 53.6429 25.4772 53.6074 25.9131C53.5807 26.349 53.5541 26.7582 53.5274 27.1407C53.5096 27.5232 53.4918 27.8435 53.4741 28.1103C53.4563 28.3772 53.4474 28.5462 53.4474 28.6174C53.4474 28.7152 53.4741 28.7953 53.5274 28.8487C53.5807 28.902 53.6785 28.9376 53.8118 28.9376C53.8829 28.9376 53.9452 28.9376 53.9985 28.9198C54.0518 28.9109 54.1051 28.8931 54.1407 28.8842C54.1674 28.4484 54.194 28.0303 54.2207 27.6477C54.2385 27.2652 54.2651 26.8827 54.2918 26.518C54.3185 26.1533 54.3363 25.7708 54.3629 25.3704C54.3807 24.979 54.4074 24.552 54.4251 24.0895H54.4607C54.6029 24.4631 54.7985 24.9257 55.0385 25.495C55.2784 26.0643 55.5629 26.687 55.8829 27.3631C55.9095 27.4342 55.9629 27.4787 56.0429 27.5054C56.1229 27.5321 56.2029 27.5499 56.3006 27.5499C56.3895 27.5499 56.4606 27.541 56.5317 27.5143C56.6029 27.4876 56.6562 27.4609 56.7006 27.4342C57.0562 26.5981 57.3495 25.922 57.5806 25.3971C57.8117 24.8723 57.9895 24.4364 58.1317 24.1073H58.1673C58.185 24.4097 58.2028 24.8011 58.2295 25.2815C58.2561 25.7619 58.2828 26.2867 58.3184 26.8649C58.3539 27.4431 58.3895 28.0214 58.425 28.6085C58.4339 28.733 58.4784 28.8131 58.5495 28.8576C58.6206 28.902 58.7006 28.9287 58.7895 28.9287C58.8695 28.9287 58.9406 28.9198 59.0028 28.902C59.065 28.8842 59.1183 28.8576 59.1717 28.822C59.1717 28.653 59.1539 28.4217 59.1272 28.137C59.1094 27.8523 59.0828 27.5232 59.0561 27.1674H59.065Z" fill="white"/>
<path d="M65.0293 26.1265C64.8604 25.6462 64.6915 25.1747 64.5227 24.7299C64.3538 24.2851 64.2027 23.8848 64.0516 23.529C64.0249 23.44 63.9538 23.3867 63.8382 23.3422C63.7227 23.3066 63.6071 23.2888 63.4916 23.2888C63.3849 23.2888 63.2871 23.2977 63.1894 23.3244C63.0916 23.3511 63.0205 23.3689 62.9672 23.3956C62.8516 23.6891 62.7272 24.0094 62.5938 24.3652C62.4605 24.721 62.3272 25.0769 62.185 25.4505C62.0427 25.8241 61.9094 26.1799 61.785 26.5358C61.6605 26.8916 61.5361 27.2118 61.4383 27.5143C61.3316 27.8167 61.2428 28.0658 61.1716 28.2704C61.145 28.3416 61.1272 28.4038 61.1094 28.4572C61.0917 28.5106 61.0828 28.5729 61.0828 28.6262C61.0828 28.7419 61.1183 28.8219 61.1983 28.8753C61.2783 28.9287 61.3583 28.9554 61.4561 28.9554C61.5272 28.9554 61.5805 28.9554 61.625 28.9376C61.6694 28.9287 61.7139 28.9109 61.7583 28.8931C61.785 28.7953 61.8294 28.6707 61.8827 28.5106C61.9361 28.3505 61.9983 28.1904 62.0516 28.0124C62.1138 27.8345 62.1672 27.6566 62.2205 27.4965C62.2294 27.4609 62.2472 27.4253 62.2561 27.3986H64.7004L65.1093 28.6085C65.1538 28.733 65.2071 28.8131 65.2604 28.8664C65.3226 28.9198 65.4115 28.9465 65.5271 28.9465C65.616 28.9465 65.6871 28.9287 65.7582 28.8931C65.8293 28.8575 65.8826 28.8131 65.9271 28.7597C65.8026 28.3861 65.6693 27.9769 65.5093 27.5232C65.3582 27.0695 65.1893 26.598 65.0204 26.1177L65.0293 26.1265ZM62.7805 25.9131C62.9138 25.5394 63.0383 25.1747 63.1627 24.8189C63.2871 24.4631 63.3938 24.1606 63.4827 23.9026H63.5182C63.5894 24.1072 63.6871 24.3741 63.7938 24.6943C63.9093 25.0146 64.0249 25.3704 64.1582 25.744C64.2827 26.091 64.3982 26.4379 64.5049 26.7848H62.4605C62.5583 26.5091 62.6649 26.2155 62.7716 25.9042L62.7805 25.9131Z" fill="white"/>
<path d="M69.8292 25.744L69.2692 25.5839C68.9314 25.4861 68.6914 25.3704 68.5403 25.237C68.3892 25.1036 68.3181 24.9256 68.3181 24.721C68.3181 24.4542 68.4248 24.2407 68.6292 24.0894C68.8336 23.9382 69.1181 23.8582 69.4647 23.8582C69.767 23.8582 70.0514 23.9026 70.3092 23.9916C70.5669 24.0805 70.7714 24.1873 70.9225 24.3118C70.9936 24.2763 71.0469 24.2229 71.0825 24.1606C71.1269 24.0983 71.1447 24.0272 71.1447 23.9471C71.1447 23.8226 71.0736 23.7069 70.9225 23.6002C70.7714 23.4934 70.5669 23.4045 70.3092 23.3333C70.0514 23.2621 69.7581 23.2266 69.4292 23.2266C68.8603 23.2266 68.407 23.36 68.0692 23.6269C67.7315 23.8937 67.5626 24.2585 67.5626 24.7299C67.5626 24.979 67.6159 25.1925 67.7137 25.3793C67.8115 25.5661 67.9626 25.7174 68.1492 25.8419C68.3359 25.9664 68.5581 26.0643 68.8159 26.1444L69.607 26.3845C69.9536 26.4824 70.2114 26.6158 70.3714 26.7759C70.5314 26.9361 70.6114 27.1496 70.6114 27.3986C70.6114 27.6922 70.5047 27.9324 70.3003 28.1192C70.0869 28.306 69.7847 28.395 69.3759 28.395C69.0025 28.395 68.6914 28.3327 68.4337 28.1993C68.1759 28.0658 67.9803 27.9324 67.8381 27.799C67.7492 27.8256 67.6781 27.879 67.6159 27.9502C67.5537 28.0213 67.5181 28.1103 67.5181 28.2082C67.5181 28.3327 67.5981 28.4572 67.7492 28.5818C67.9003 28.7063 68.1226 28.8131 68.3981 28.8931C68.6736 28.9732 69.0025 29.0177 69.367 29.0177C69.9981 29.0177 70.4869 28.8664 70.8425 28.5729C71.1891 28.2793 71.3669 27.8879 71.3669 27.4075C71.3669 26.9539 71.2247 26.6069 70.9491 26.349C70.6736 26.091 70.2914 25.8953 69.8114 25.7618L69.8292 25.744Z" fill="white"/>
<path d="M77.029 23.3334H73.0824C72.9935 23.3334 72.9224 23.36 72.8691 23.4223C72.8246 23.4757 72.798 23.5646 72.798 23.6625C72.798 23.7248 72.8069 23.7781 72.8246 23.8315C72.8424 23.8849 72.8602 23.9294 72.878 23.9561H74.5846V28.5818C74.5846 28.6975 74.6201 28.7864 74.6824 28.8398C74.7535 28.8932 74.8512 28.9199 74.9846 28.9199C75.0557 28.9199 75.1179 28.9199 75.1801 28.8932C75.2423 28.8665 75.2868 28.8665 75.3223 28.8487V23.9472H76.8245C76.9134 23.9472 76.9845 23.9116 77.0379 23.8493C77.0823 23.787 77.109 23.707 77.109 23.6091C77.109 23.5469 77.1001 23.4935 77.0823 23.4401C77.0645 23.3867 77.0467 23.3423 77.029 23.3245V23.3334Z" fill="white"/>
<path d="M82.5399 28.2617H79.8022V26.3492H82.0066C82.0955 26.3492 82.1666 26.3225 82.2199 26.2602C82.2644 26.1979 82.291 26.1179 82.291 26.02C82.291 25.9578 82.2821 25.9044 82.2644 25.851C82.2466 25.7976 82.2288 25.7532 82.211 25.7354H79.8022V23.974H82.291C82.3799 23.974 82.451 23.9384 82.5044 23.8762C82.5488 23.8139 82.5755 23.7338 82.5755 23.636C82.5755 23.5737 82.5666 23.5203 82.5488 23.467C82.531 23.4136 82.5132 23.3691 82.4955 23.3513H79.4644C79.34 23.3513 79.2422 23.3869 79.1711 23.4581C79.1 23.5292 79.0645 23.6271 79.0645 23.7516V28.493C79.0645 28.6087 79.1 28.7065 79.1711 28.7777C79.2422 28.8578 79.34 28.8933 79.4644 28.8933H82.3355C82.4244 28.8933 82.4955 28.8667 82.5488 28.8044C82.5932 28.7421 82.6199 28.6621 82.6199 28.5642C82.6199 28.493 82.611 28.4397 82.5932 28.3863C82.5755 28.3329 82.5577 28.2973 82.5399 28.2706V28.2617Z" fill="white"/>
<path d="M88.2287 27.6121C88.0598 27.3898 87.882 27.1674 87.7043 26.9361C87.6331 26.8471 87.562 26.7582 87.4998 26.6781C87.6154 26.6425 87.722 26.6069 87.8287 26.5625C88.1487 26.4201 88.3976 26.2066 88.5576 25.9398C88.7176 25.6729 88.8065 25.3615 88.8065 24.9968C88.8065 24.4364 88.6198 24.0005 88.2376 23.6891C87.8554 23.3778 87.2954 23.2266 86.531 23.2266C86.291 23.2266 86.0332 23.2355 85.7754 23.2621C85.5177 23.2888 85.2954 23.3244 85.1266 23.3778C85.0288 23.4045 84.9577 23.449 84.9043 23.5023C84.851 23.5557 84.8243 23.6269 84.8243 23.7247V28.5818C84.8243 28.6974 84.8599 28.7864 84.9221 28.8398C84.9932 28.8931 85.091 28.9198 85.2243 28.9198C85.2954 28.9198 85.3665 28.9198 85.4288 28.8931C85.491 28.8753 85.5354 28.8664 85.571 28.8486V26.7671H86.611C86.6732 26.7671 86.7354 26.7671 86.7887 26.7671L88.122 28.6351C88.1931 28.733 88.2642 28.8042 88.3354 28.8575C88.4065 28.9109 88.4865 28.9376 88.5931 28.9376C88.682 28.9376 88.762 28.9109 88.842 28.8486C88.922 28.7864 88.9753 28.7063 89.002 28.5996C88.9309 28.5017 88.8242 28.3683 88.6909 28.1904C88.5576 28.0213 88.4065 27.8167 88.2376 27.6033L88.2287 27.6121ZM85.5532 26.1621V23.9382C85.6776 23.9115 85.8288 23.8937 85.9976 23.8759C86.1665 23.8582 86.3265 23.8493 86.4954 23.8493C86.9932 23.8493 87.3754 23.9471 87.642 24.1428C87.9087 24.3385 88.042 24.6232 88.042 24.9968C88.042 25.3704 87.9176 25.6729 87.6598 25.8597C87.402 26.0554 87.0554 26.1532 86.6021 26.1532H85.5532V26.1621Z" fill="white"/>
<path d="M96.9573 28.2793H94.2463L95.7307 26.9005C96.184 26.4913 96.4951 26.1177 96.6818 25.7974C96.8684 25.4772 96.9573 25.148 96.9573 24.81C96.9573 24.472 96.8773 24.2051 96.7262 23.9738C96.5751 23.7336 96.3618 23.5557 96.0773 23.4223C95.8018 23.2888 95.464 23.2266 95.0729 23.2266C94.7974 23.2266 94.5307 23.2621 94.2996 23.3244C94.0596 23.3956 93.8729 23.4756 93.7307 23.5824C93.5885 23.6891 93.5174 23.7959 93.5174 23.9026C93.5174 23.9916 93.5441 24.0717 93.5974 24.1339C93.6507 24.1962 93.7041 24.2407 93.7752 24.2674C93.9174 24.1606 94.0863 24.0628 94.2996 23.9738C94.5129 23.8848 94.744 23.8404 95.0196 23.8404C95.4107 23.8404 95.7129 23.9293 95.8996 24.1161C96.0951 24.3029 96.1929 24.5342 96.1929 24.8189C96.1929 25.0769 96.1218 25.3348 95.9796 25.575C95.8373 25.8152 95.5796 26.1088 95.2062 26.4646L93.5618 28.0391C93.4907 28.1103 93.4374 28.1815 93.4018 28.2526C93.3663 28.3327 93.3485 28.4128 93.3485 28.5106C93.3485 28.5818 93.3663 28.6529 93.393 28.7152C93.4196 28.7775 93.473 28.8309 93.5263 28.8753H96.744C96.8329 28.8753 96.8951 28.8486 96.9484 28.7953C97.0017 28.7419 97.0284 28.6618 97.0284 28.564C97.0284 28.4928 97.0195 28.4394 97.0017 28.3861C96.984 28.3327 96.9662 28.2971 96.9395 28.2704L96.9573 28.2793Z" fill="white"/>
<path d="M101.357 25.744L100.797 25.5839C100.459 25.4861 100.219 25.3704 100.068 25.237C99.9172 25.1036 99.8461 24.9256 99.8461 24.721C99.8461 24.4542 99.9528 24.2407 100.157 24.0894C100.362 23.9382 100.646 23.8582 100.993 23.8582C101.295 23.8582 101.579 23.9026 101.837 23.9916C102.095 24.0805 102.299 24.1873 102.45 24.3118C102.522 24.2763 102.575 24.2229 102.61 24.1606C102.655 24.0983 102.673 24.0272 102.673 23.9471C102.673 23.8226 102.602 23.7069 102.45 23.6002C102.299 23.4934 102.095 23.4045 101.837 23.3333C101.579 23.2621 101.286 23.2266 100.957 23.2266C100.388 23.2266 99.935 23.36 99.5972 23.6269C99.2595 23.8937 99.0906 24.2585 99.0906 24.7299C99.0906 24.979 99.1439 25.1925 99.2417 25.3793C99.3395 25.5661 99.4906 25.7174 99.6772 25.8419C99.8639 25.9664 100.086 26.0643 100.344 26.1444L101.135 26.3845C101.482 26.4824 101.739 26.6158 101.899 26.7759C102.059 26.9361 102.139 27.1496 102.139 27.3986C102.139 27.6922 102.033 27.9324 101.828 28.1192C101.624 28.306 101.313 28.395 100.904 28.395C100.531 28.395 100.219 28.3327 99.9617 28.1993C99.7039 28.0658 99.5084 27.9324 99.3661 27.799C99.2772 27.8256 99.2061 27.879 99.1439 27.9502C99.0817 28.0213 99.0461 28.1103 99.0461 28.2082C99.0461 28.3327 99.1261 28.4572 99.2772 28.5818C99.4284 28.7063 99.6506 28.8131 99.9261 28.8931C100.202 28.9732 100.531 29.0177 100.895 29.0177C101.526 29.0177 102.015 28.8664 102.37 28.5729C102.717 28.2793 102.895 27.8879 102.895 27.4075C102.895 26.9539 102.753 26.6069 102.477 26.349C102.202 26.091 101.819 25.8953 101.339 25.7618L101.357 25.744Z" fill="white"/>
<path d="M108.797 23.5469C108.397 23.3245 107.953 23.2178 107.455 23.2178C106.957 23.2178 106.522 23.3245 106.122 23.5469C105.722 23.7693 105.402 24.0896 105.17 24.5165C104.93 24.9435 104.815 25.4773 104.815 26.1089C104.815 26.7405 104.93 27.2742 105.162 27.7012C105.393 28.1282 105.713 28.4573 106.113 28.6708C106.513 28.8932 106.966 29 107.464 29C107.961 29 108.424 28.8932 108.815 28.6708C109.215 28.4484 109.526 28.1282 109.757 27.7012C109.988 27.2742 110.104 26.7405 110.104 26.1089C110.104 25.4773 109.988 24.9435 109.757 24.5165C109.526 24.0896 109.206 23.7604 108.806 23.5469H108.797ZM108.833 27.7813C108.495 28.1727 108.033 28.3684 107.455 28.3684C106.877 28.3684 106.424 28.1727 106.086 27.7813C105.748 27.3899 105.579 26.8294 105.579 26.1089C105.579 25.3883 105.748 24.8279 106.095 24.4365C106.442 24.0451 106.895 23.8494 107.455 23.8494C108.015 23.8494 108.486 24.0451 108.824 24.4365C109.17 24.8279 109.339 25.3883 109.339 26.1089C109.339 26.8294 109.17 27.3899 108.833 27.7813Z" fill="white"/>
<path d="M116.228 23.2888C116.157 23.2888 116.086 23.2888 116.023 23.3155C115.961 23.3333 115.917 23.3422 115.881 23.36V26.9094C115.881 27.3986 115.748 27.7634 115.472 28.0124C115.197 28.2615 114.868 28.3861 114.468 28.3861C114.068 28.3861 113.73 28.2615 113.464 28.0124C113.197 27.7634 113.055 27.3986 113.055 26.9094V23.6358C113.055 23.5112 113.019 23.4312 112.957 23.3778C112.895 23.3244 112.797 23.2977 112.664 23.2977C112.592 23.2977 112.521 23.2977 112.459 23.3244C112.397 23.3422 112.352 23.3511 112.317 23.3689V26.9805C112.317 27.3897 112.397 27.7456 112.566 28.0569C112.735 28.3683 112.975 28.5996 113.304 28.7686C113.624 28.9376 114.015 29.0177 114.468 29.0177C114.921 29.0177 115.321 28.9376 115.641 28.7686C115.961 28.5996 116.21 28.3683 116.379 28.0569C116.548 27.7456 116.628 27.3897 116.628 26.9805V23.6446C116.628 23.5201 116.592 23.44 116.53 23.3867C116.459 23.3333 116.361 23.3066 116.228 23.3066V23.2888Z" fill="white"/>
<path d="M122.592 28.3594C122.574 28.306 122.548 28.2615 122.521 28.2437H119.908V23.6269C119.908 23.5023 119.872 23.4223 119.81 23.3689C119.739 23.3155 119.641 23.2888 119.508 23.2888C119.437 23.2888 119.366 23.2888 119.303 23.3155C119.241 23.3422 119.197 23.3422 119.161 23.36V28.4839C119.161 28.5996 119.197 28.6974 119.277 28.7686C119.357 28.8486 119.446 28.8842 119.561 28.8842H122.325C122.414 28.8842 122.485 28.8575 122.548 28.7953C122.601 28.733 122.628 28.6529 122.628 28.5462C122.628 28.475 122.619 28.4216 122.601 28.3594H122.592Z" fill="white"/>
</g>
<defs>
<clipPath id="clip0_308_56">
<rect width="159" height="29" fill="white"/>
</clipPath>
</defs>
</svg>
