<svg width="31" height="32" viewBox="0 0 31 32" fill="none" xmlns="http://www.w3.org/2000/svg">
<path d="M29.1525 11.5184C27.4661 10.1989 25.6311 10.2655 23.6018 11.2126L21.1275 12.3792C19.8769 12.9819 18.8664 12.9054 18.0606 12.274C16.9856 11.442 16.8466 9.93087 17.7455 8.7067C17.9773 8.391 18.1442 8.19984 18.5704 7.93184L24.7142 8.93609L24.7234 8.91678L21.2577 4.66093C20.4145 3.28383 19.4323 2.28904 18.2462 1.36126C15.5126 -0.761938 12.742 -0.264545 11.1664 1.90634C9.89698 3.64684 9.9619 5.54064 10.8792 7.63507L12.0096 10.1887C12.5843 11.4798 12.5099 12.5318 11.8985 13.3543C11.0923 14.4638 9.62814 14.6073 8.442 13.6795C8.13648 13.4501 7.95089 13.2684 7.70075 12.8285L8.66426 6.48774L8.64592 6.47827L4.54064 10.055C3.19715 10.9253 2.21457 11.939 1.31598 13.1726C-0.741244 15.9938 -0.250136 18.8631 1.84413 20.4889C3.53972 21.799 5.36551 21.7324 7.39486 20.7853L9.86911 19.6187C11.1202 19.0161 12.1394 19.1024 12.9456 19.7239C14.0111 20.5559 14.1504 22.067 13.2511 23.3007C13.0288 23.6069 12.862 23.8075 12.4358 24.0657L6.28281 23.0614L6.27364 23.0807L9.68352 27.2696C10.5451 28.6755 11.5277 29.7085 12.7417 30.6457C15.4752 32.7595 18.2554 32.2621 19.8306 30.1007C21.1004 28.3503 21.0355 26.4569 20.1178 24.3719L18.9874 21.8089C18.4035 20.5177 18.4872 19.4752 19.0894 18.6432C19.8956 17.5337 21.3597 17.4001 22.555 18.318C22.8517 18.5573 23.0461 18.7291 23.2963 19.169L22.3324 25.5098L22.3416 25.5291L26.4931 21.9236C27.8182 21.0628 28.7913 20.0491 29.681 18.8249C31.7383 16.0037 31.2563 13.1439 29.1529 11.5181L29.1525 11.5184ZM8.20066 15.2387L5.22614 16.4818C3.55806 17.1896 2.59418 17.1132 1.8533 16.5488C0.936005 15.8315 0.86155 14.5884 1.51037 13.6988C1.76051 13.3543 1.89035 13.2109 2.22374 12.9338L7.64463 13.6988C7.82068 13.8423 7.99674 13.9857 8.17279 14.1197C8.54359 14.4067 8.92357 14.6554 9.31271 14.856C8.95144 14.9517 8.581 15.0759 8.20066 15.2387ZM14.9837 1.91656C15.6788 0.960011 16.8833 0.893389 17.736 1.56264C18.0698 1.8208 18.2088 1.9548 18.4868 2.29888L17.7455 7.86484C17.5974 8.04654 17.4584 8.23769 17.3193 8.42923C17.0413 8.81193 16.8095 9.20371 16.606 9.59587C16.5227 9.23248 16.4021 8.85962 16.2447 8.46746L15.0494 5.39756C14.3635 3.67599 14.4285 2.68158 14.9845 1.91619L14.9837 1.91656ZM16.0125 30.0912C15.3175 31.0379 14.113 31.1049 13.2603 30.4451C12.9173 30.187 12.7783 30.053 12.5095 29.699L13.2416 24.152C13.3898 23.9608 13.5379 23.7693 13.6769 23.5781C13.9549 23.1954 14.1867 22.8131 14.3811 22.421C14.4644 22.7844 14.5942 23.1477 14.7424 23.5304L15.9473 26.6004C16.6331 28.3219 16.5587 29.3262 16.0122 30.0912H16.0125ZM16.8649 16.5681C16.5224 16.7592 16.2348 17.056 16.0404 17.4096L15.4936 18.4426L14.9559 17.4096C14.7615 17.0556 14.4739 16.7592 14.1314 16.5681L13.1304 16.0037L14.1314 15.4393C14.4739 15.2383 14.7615 14.9419 14.9559 14.588L15.4936 13.555L16.0404 14.588C16.2348 14.9419 16.5224 15.2383 16.8649 15.4393L17.8658 16.0037L16.8649 16.5681ZM29.4859 18.2991C29.2358 18.6436 29.1059 18.787 28.7725 19.0736L23.3425 18.2991C23.1756 18.1557 22.9995 18.0122 22.8235 17.8782C22.4531 17.5913 22.0727 17.3426 21.6931 17.1419C22.0544 17.0462 22.416 16.922 22.7956 16.7592L25.7705 15.5256C27.4382 14.8083 28.4113 14.8847 29.1433 15.4586C30.0702 16.1759 30.1351 17.419 29.4859 18.2991Z" fill="#9BA1A0"/>
</svg>
