<svg aria-hidden="true" style="position: absolute; width: 0; height: 0; overflow: hidden;" version="1.1" xmlns="http://www.w3.org/2000/svg" xmlns:xlink="http://www.w3.org/1999/xlink">
<defs>
<symbol id="icon-search" viewBox="0 0 26 28">
<path fill-rule="evenodd" clip-rule="evenodd" d="M6.66675 2.00008C4.08942 2.00008 2.00008 4.08942 2.00008 6.66675C2.00008 9.24408 4.08942 11.3334 6.66675 11.3334C9.24408 11.3334 11.3334 9.24408 11.3334 6.66675C11.3334 4.08942 9.24408 2.00008 6.66675 2.00008ZM0.666748 6.66675C0.666748 3.35304 3.35304 0.666748 6.66675 0.666748C9.98046 0.666748 12.6667 3.35304 12.6667 6.66675C12.6667 9.98046 9.98046 12.6667 6.66675 12.6667C3.35304 12.6667 0.666748 9.98046 0.666748 6.66675Z" fill="white"/>
<path fill-rule="evenodd" clip-rule="evenodd" d="M10.6667 9.72388L15.6095 14.6667L14.6667 15.6095L9.72388 10.6667L10.6667 9.72388Z" fill="white"/>
</symbol>
<symbol id="icon-arrow-down" viewBox="0 0 24 24">
<path d="M0.703369 1L4.38833 4.5L8.07329 1" stroke="white" stroke-linecap="round"/>
</symbol>
<symbol id="icon-menu" viewBox="0 0 24 24">
<path d="M25.786 18.9465H8.74562M25.786 12.9643H1M25.786 6.98217H15.3294M25.786 1H1" stroke="white" stroke-width="2" stroke-linecap="round" stroke-linejoin="round"/>
</symbol>
<symbol id="icon-insta" viewBox="0 0 18 18">
<path d="M5.85 1.5H12.15C14.55 1.5 16.5 3.45 16.5 5.85V12.15C16.5 13.3037 16.0417 14.4101 15.2259 15.2259C14.4101 16.0417 13.3037 16.5 12.15 16.5H5.85C3.45 16.5 1.5 14.55 1.5 12.15V5.85C1.5 4.69631 1.9583 3.58987 2.77409 2.77409C3.58987 1.9583 4.69631 1.5 5.85 1.5ZM5.7 3C4.98392 3 4.29716 3.28446 3.79081 3.79081C3.28446 4.29716 3 4.98391 3 5.7V12.3C3 13.7925 4.2075 15 5.7 15H12.3C13.0161 15 13.7028 14.7155 14.2092 14.2092C14.7155 13.7028 15 13.0161 15 12.3V5.7C15 4.2075 13.7925 3 12.3 3H5.7ZM12.9375 4.125C13.1861 4.125 13.4246 4.22377 13.6004 4.39959C13.7762 4.5754 13.875 4.81386 13.875 5.0625C13.875 5.31114 13.7762 5.5496 13.6004 5.72541C13.4246 5.90123 13.1861 6 12.9375 6C12.6889 6 12.4504 5.90123 12.2746 5.72541C12.0988 5.5496 12 5.31114 12 5.0625C12 4.81386 12.0988 4.5754 12.2746 4.39959C12.4504 4.22377 12.6889 4.125 12.9375 4.125ZM9 5.25C9.99456 5.25 10.9484 5.64509 11.6517 6.34835C12.3549 7.05161 12.75 8.00544 12.75 9C12.75 9.99456 12.3549 10.9484 11.6517 11.6516C10.9484 12.3549 9.99456 12.75 9 12.75C8.00544 12.75 7.05161 12.3549 6.34835 11.6516C5.64509 10.9484 5.25 9.99456 5.25 9C5.25 8.00544 5.64509 7.05161 6.34835 6.34835C7.05161 5.64509 8.00544 5.25 9 5.25ZM9 6.75C8.40326 6.75 7.83097 6.98705 7.40901 7.40901C6.98705 7.83097 6.75 8.40326 6.75 9C6.75 9.59674 6.98705 10.169 7.40901 10.591C7.83097 11.0129 8.40326 11.25 9 11.25C9.59674 11.25 10.169 11.0129 10.591 10.591C11.0129 10.169 11.25 9.59674 11.25 9C11.25 8.40326 11.0129 7.83097 10.591 7.40901C10.169 6.98705 9.59674 6.75 9 6.75Z" fill="white"/></symbol>
<symbol id="icon-facebook" viewBox="0 0 20 20">
<path d="M15.675 1.5H2.325C2.1062 1.5 1.89635 1.58692 1.74164 1.74164C1.58692 1.89635 1.5 2.1062 1.5 2.325V15.675C1.5 15.8938 1.58692 16.1036 1.74164 16.2584C1.89635 16.4131 2.1062 16.5 2.325 16.5H8.51C9.06228 16.5 9.51 16.0523 9.51 15.5V11.6625C9.51 11.124 9.07348 10.6875 8.535 10.6875C7.99652 10.6875 7.56 10.251 7.56 9.7125V9.4125C7.56 8.87402 7.99652 8.4375 8.535 8.4375C9.07348 8.4375 9.51 8.00098 9.51 7.4625V6.75C9.46961 6.35382 9.51638 5.95359 9.64704 5.5774C9.77769 5.20121 9.98907 4.85816 10.2663 4.57231C10.5436 4.28646 10.8801 4.06473 11.2521 3.92268C11.6242 3.78063 12.0228 3.72169 12.42 3.75C12.7048 3.74825 12.9896 3.7545 13.274 3.76875C13.7835 3.79429 14.1675 4.22632 14.1675 4.73648V4.865C14.1675 5.41728 13.7198 5.865 13.1675 5.865H12.975C12.03 5.865 11.85 6.315 11.85 6.9675V7.415C11.85 7.96728 12.2977 8.415 12.85 8.415H12.9616C13.5651 8.415 14.031 8.94548 13.9532 9.54391L13.9207 9.79391C13.856 10.2922 13.4315 10.665 12.9291 10.665H12.85C12.2977 10.665 11.85 11.1127 11.85 11.665V15.5C11.85 16.0523 12.2977 16.5 12.85 16.5H15.675C15.7833 16.5 15.8906 16.4787 15.9907 16.4372C16.0908 16.3957 16.1818 16.335 16.2584 16.2584C16.335 16.1818 16.3957 16.0908 16.4372 15.9907C16.4787 15.8906 16.5 15.7833 16.5 15.675V2.325C16.5 2.21666 16.4787 2.10938 16.4372 2.00929C16.3957 1.90919 16.335 1.81825 16.2584 1.74164C16.1818 1.66503 16.0908 1.60426 15.9907 1.5628C15.8906 1.52134 15.7833 1.5 15.675 1.5Z" fill="white"/></symbol>
<symbol id="icon-twitter" viewBox="0 0 18 15">
<path d="M18 1.73166C17.326 2.03026 16.611 2.22626 15.879 2.31314C16.6415 1.85611 17.227 1.13238 17.5027 0.27007C16.7778 0.700232 15.9847 1.00331 15.1577 1.1662C14.484 0.448523 13.5243 0 12.4621 0C10.4226 0 8.76909 1.65347 8.76909 3.69281C8.76909 3.98229 8.80179 4.2641 8.86472 4.53445C5.79558 4.3804 3.07448 2.91023 1.25304 0.675984C0.935227 1.2214 0.753117 1.85583 0.753117 2.53252C0.753117 3.81375 1.40513 4.94402 2.39597 5.6063C1.80953 5.58793 1.23599 5.42954 0.723234 5.14434C0.723023 5.15981 0.723023 5.17528 0.723023 5.19082C0.723023 6.98006 1.99596 8.47266 3.68529 8.81191C3.14148 8.95981 2.57107 8.98145 2.01762 8.8752C2.48752 10.3423 3.85137 11.41 5.46729 11.4398C4.20342 12.4303 2.61105 13.0207 0.880945 13.0207C0.58282 13.0207 0.288914 13.0032 0 12.9691C1.63427 14.0169 3.57539 14.6282 5.66086 14.6282C12.4535 14.6282 16.1679 9.00105 16.1679 4.12109C16.1679 3.96091 16.1644 3.80166 16.1573 3.64331C16.8802 3.12067 17.5042 2.47332 18 1.73166Z" fill="white"/>
</symbol>
<symbol id="icon-youtube" viewBox="0 0 18 15">
<path d="M17.5444 2.37215C17.4687 2.07591 17.3236 1.80192 17.1211 1.57278C16.9187 1.34364 16.6647 1.16592 16.38 1.05429C13.6254 -0.00963989 9.24107 3.05672e-06 9 3.05672e-06C8.75893 3.05672e-06 4.37464 -0.00963989 1.62 1.05429C1.33535 1.16592 1.08131 1.34364 0.878862 1.57278C0.67641 1.80192 0.531342 2.07591 0.455625 2.37215C0.2475 3.17411 0 4.63982 0 7.07143C0 9.50304 0.2475 10.9688 0.455625 11.7707C0.531229 12.0671 0.676246 12.3413 0.878704 12.5705C1.08116 12.7998 1.33525 12.9777 1.62 13.0894C4.25893 14.1075 8.38929 14.1429 8.94696 14.1429H9.05304C9.61071 14.1429 13.7435 14.1075 16.38 13.0894C16.6647 12.9777 16.9188 12.7998 17.1213 12.5705C17.3238 12.3413 17.4688 12.0671 17.5444 11.7707C17.7525 10.9671 18 9.50304 18 7.07143C18 4.63982 17.7525 3.17411 17.5444 2.37215ZM11.7498 7.33902L7.89268 9.91045C7.84426 9.94275 7.78798 9.9613 7.72984 9.96412C7.6717 9.96694 7.61389 9.95391 7.56258 9.92644C7.51126 9.89897 7.46837 9.85808 7.43848 9.80813C7.40859 9.75819 7.39282 9.70106 7.39286 9.64286V4.5C7.39282 4.4418 7.40859 4.38467 7.43848 4.33473C7.46837 4.28478 7.51126 4.24389 7.56258 4.21642C7.61389 4.18895 7.6717 4.17592 7.72984 4.17874C7.78798 4.18156 7.84426 4.20011 7.89268 4.23241L11.7498 6.80384C11.7939 6.83318 11.8301 6.87296 11.8551 6.91965C11.8801 6.96633 11.8932 7.01847 11.8932 7.07143C11.8932 7.12439 11.8801 7.17653 11.8551 7.22321C11.8301 7.2699 11.7939 7.30968 11.7498 7.33902Z" fill="white"/>
</symbol>
<symbol id="icon-button-arrow" viewbox="0 0 32 6">
<path d="M31.5 3L26.5 0.113249V5.88675L31.5 3ZM0 3.5H27V2.5H0V3.5Z"/>
</symbol>

<symbol id="icon-star" viewBox="0 0 19 18">
<path d="M9.5 0L12.6829 5.11917L18.535 6.56434L14.65 11.1733L15.084 17.1857L9.5 14.915L3.91604 17.1857L4.35003 11.1733L0.464963 6.56434L6.31714 5.11917L9.5 0Z" fill="#F7B92E"/>
</symbol>

</defs>
</svg>
